<?xml version="1.0" encoding="UTF-8"?>
<svg width="24px" height="24px" viewBox="0 0 24 24" version="1.1" xmlns="http://www.w3.org/2000/svg">
    <title>News Icon</title>
    <g stroke="none" stroke-width="1" fill="none" fill-rule="evenodd">
        <rect fill="#1976d2" x="0" y="0" width="24" height="24" rx="2"></rect>
        <path d="M19,3 L5,3 C3.9,3 3,3.9 3,5 L3,19 C3,20.1 3.9,21 5,21 L19,21 C20.1,21 21,20.1 21,19 L21,5 C21,3.9 20.1,3 19,3 Z M15,17 L5,17 L5,15 L15,15 L15,17 Z M19,13 L5,13 L5,11 L19,11 L19,13 Z M19,9 L5,9 L5,7 L19,7 L19,9 Z" fill="#FFFFFF"></path>
    </g>
</svg> 